<svg xmlns="http://www.w3.org/2000/svg" viewBox="0 0 1774 887">
<path d="M 1561 582 L 1554 586 L 1551 590 L 1551 592 L 1550 593 L 1550 600 L 1551 601 L 1551 603 L 1556 608 L 1560 610 L 1566 611 L 1567 612 L 1575 614 L 1578 617 L 1578 622 L 1575 625 L 1573 625 L 1572 626 L 1565 626 L 1553 620 L 1548 625 L 1548 626 L 1550 628 L 1557 632 L 1565 633 L 1566 634 L 1576 633 L 1582 630 L 1586 626 L 1586 624 L 1587 623 L 1587 614 L 1585 610 L 1583 608 L 1577 605 L 1575 605 L 1574 604 L 1572 604 L 1568 602 L 1565 602 L 1561 600 L 1559 597 L 1559 594 L 1560 592 L 1563 590 L 1572 590 L 1573 591 L 1575 591 L 1579 593 L 1581 595 L 1586 589 L 1586 588 L 1585 588 L 1582 585 L 1578 583 L 1576 583 L 1575 582 Z" fill="white" fill-rule="evenodd"/>
<path d="M 1476 582 L 1475 583 L 1475 633 L 1484 633 L 1484 599 L 1485 598 L 1492 608 L 1497 613 L 1503 622 L 1507 626 L 1510 631 L 1512 633 L 1520 633 L 1520 583 L 1519 582 L 1511 582 L 1511 615 L 1510 616 L 1497 600 L 1494 595 L 1490 591 L 1487 586 L 1483 582 Z" fill="white" fill-rule="evenodd"/>
<path d="M 1412 582 L 1411 583 L 1409 583 L 1408 584 L 1405 585 L 1402 588 L 1401 588 L 1399 590 L 1399 591 L 1395 596 L 1395 598 L 1394 599 L 1394 601 L 1393 602 L 1393 614 L 1394 615 L 1394 617 L 1395 618 L 1395 620 L 1397 622 L 1397 623 L 1404 630 L 1405 630 L 1408 632 L 1410 632 L 1411 633 L 1415 633 L 1416 634 L 1422 634 L 1423 633 L 1427 633 L 1428 632 L 1430 632 L 1431 631 L 1434 630 L 1436 628 L 1437 628 L 1443 621 L 1443 620 L 1444 619 L 1444 617 L 1445 616 L 1445 614 L 1446 613 L 1446 602 L 1445 601 L 1445 599 L 1444 598 L 1444 596 L 1442 594 L 1442 593 L 1435 586 L 1434 586 L 1429 583 L 1427 583 L 1426 582 Z" fill="white" fill-rule="evenodd"/>
<path d="M 1414 590 L 1424 590 L 1425 591 L 1426 591 L 1427 592 L 1428 592 L 1434 598 L 1434 599 L 1435 600 L 1435 601 L 1436 602 L 1436 613 L 1435 614 L 1435 616 L 1434 617 L 1434 618 L 1428 624 L 1426 624 L 1425 625 L 1423 625 L 1422 626 L 1415 626 L 1414 625 L 1413 625 L 1412 624 L 1411 624 L 1410 623 L 1409 623 L 1406 620 L 1406 619 L 1404 617 L 1404 616 L 1403 615 L 1403 613 L 1402 612 L 1402 604 L 1403 603 L 1403 600 L 1404 599 L 1404 598 L 1410 592 L 1411 592 L 1412 591 L 1413 591 Z" fill="white" fill-rule="evenodd"/>
<path d="M 1355 582 L 1354 583 L 1354 633 L 1363 633 L 1363 582 Z" fill="white" fill-rule="evenodd"/>
<path d="M 1285 582 L 1284 583 L 1284 590 L 1290 590 L 1291 591 L 1298 591 L 1299 590 L 1300 591 L 1300 633 L 1309 633 L 1309 591 L 1310 590 L 1311 591 L 1315 591 L 1316 590 L 1323 590 L 1324 591 L 1325 590 L 1325 582 Z" fill="white" fill-rule="evenodd"/>
<path d="M 1213 582 L 1212 583 L 1212 616 L 1213 617 L 1214 623 L 1216 625 L 1216 626 L 1220 630 L 1226 633 L 1230 633 L 1231 634 L 1242 633 L 1243 632 L 1247 631 L 1253 625 L 1255 621 L 1255 618 L 1256 617 L 1256 582 L 1247 582 L 1247 615 L 1246 616 L 1245 620 L 1240 625 L 1237 625 L 1236 626 L 1232 626 L 1231 625 L 1229 625 L 1227 624 L 1223 620 L 1222 618 L 1222 584 L 1221 582 Z" fill="white" fill-rule="evenodd"/>
<path d="M 1152 582 L 1151 583 L 1151 633 L 1187 633 L 1187 625 L 1161 625 L 1160 624 L 1160 582 Z" fill="white" fill-rule="evenodd"/>
<path d="M 1088 582 L 1087 583 L 1085 583 L 1084 584 L 1081 585 L 1078 588 L 1077 588 L 1075 590 L 1075 591 L 1072 594 L 1072 595 L 1071 596 L 1071 598 L 1069 601 L 1069 615 L 1070 616 L 1070 617 L 1071 618 L 1071 620 L 1073 622 L 1073 623 L 1076 626 L 1076 627 L 1077 627 L 1080 630 L 1081 630 L 1082 631 L 1084 631 L 1087 633 L 1091 633 L 1092 634 L 1098 634 L 1099 633 L 1103 633 L 1104 632 L 1106 632 L 1107 631 L 1110 630 L 1113 627 L 1114 627 L 1115 626 L 1115 625 L 1118 622 L 1118 621 L 1120 618 L 1120 616 L 1121 615 L 1121 611 L 1122 610 L 1122 604 L 1121 603 L 1121 600 L 1120 599 L 1120 598 L 1119 597 L 1119 595 L 1117 593 L 1117 592 L 1111 586 L 1110 586 L 1105 583 L 1103 583 L 1102 582 Z" fill="white" fill-rule="evenodd"/>
<path d="M 1091 590 L 1100 590 L 1101 591 L 1102 591 L 1103 592 L 1104 592 L 1110 598 L 1110 599 L 1111 600 L 1111 601 L 1112 602 L 1112 613 L 1111 614 L 1111 615 L 1110 616 L 1110 617 L 1109 618 L 1109 619 L 1105 623 L 1104 623 L 1103 624 L 1102 624 L 1101 625 L 1100 625 L 1099 626 L 1092 626 L 1091 625 L 1089 625 L 1088 624 L 1087 624 L 1085 622 L 1084 622 L 1081 619 L 1081 618 L 1080 617 L 1080 616 L 1079 615 L 1079 612 L 1078 611 L 1078 605 L 1079 604 L 1079 601 L 1080 600 L 1080 599 L 1081 598 L 1081 597 L 1086 592 L 1087 592 L 1088 591 L 1090 591 Z" fill="white" fill-rule="evenodd"/>
<path d="M 1016 582 L 1015 583 L 1011 584 L 1006 589 L 1005 591 L 1005 594 L 1004 595 L 1005 602 L 1010 608 L 1014 610 L 1016 610 L 1017 611 L 1020 611 L 1024 613 L 1027 613 L 1029 614 L 1033 619 L 1032 620 L 1032 622 L 1027 626 L 1019 626 L 1018 625 L 1016 625 L 1012 623 L 1009 620 L 1007 620 L 1007 621 L 1003 625 L 1003 626 L 1006 629 L 1015 633 L 1019 633 L 1020 634 L 1030 633 L 1031 632 L 1035 631 L 1038 628 L 1039 628 L 1041 624 L 1041 621 L 1042 620 L 1042 616 L 1041 615 L 1041 613 L 1040 611 L 1034 606 L 1030 605 L 1029 604 L 1027 604 L 1026 603 L 1022 603 L 1021 602 L 1019 602 L 1015 600 L 1013 597 L 1013 594 L 1017 590 L 1027 590 L 1033 593 L 1035 595 L 1040 589 L 1040 588 L 1036 585 L 1032 583 L 1030 583 L 1029 582 Z" fill="white" fill-rule="evenodd"/>
<path d="M 895 582 L 895 584 L 897 586 L 897 587 L 899 589 L 899 590 L 905 598 L 906 601 L 908 603 L 908 604 L 914 612 L 914 633 L 923 633 L 923 622 L 924 621 L 923 620 L 923 613 L 925 611 L 926 608 L 928 606 L 928 605 L 930 603 L 930 602 L 933 599 L 934 596 L 936 594 L 936 593 L 938 591 L 938 590 L 940 588 L 940 587 L 943 583 L 942 582 L 933 582 L 932 583 L 931 586 L 929 588 L 929 589 L 927 591 L 927 592 L 925 594 L 924 597 L 922 599 L 922 600 L 919 604 L 913 596 L 912 593 L 908 588 L 908 587 L 905 583 L 905 582 Z" fill="white" fill-rule="evenodd"/>
<path d="M 839 584 L 829 593 L 825 602 L 825 614 L 826 615 L 827 620 L 832 627 L 840 632 L 847 633 L 848 634 L 860 633 L 861 632 L 866 631 L 868 629 L 871 628 L 873 626 L 873 605 L 852 605 L 851 606 L 851 612 L 853 613 L 863 613 L 864 614 L 864 621 L 861 624 L 856 626 L 849 626 L 848 625 L 843 624 L 837 618 L 835 614 L 835 609 L 834 608 L 836 599 L 841 593 L 847 590 L 856 590 L 861 592 L 864 595 L 866 595 L 871 588 L 859 582 L 844 582 L 841 584 Z" fill="white" fill-rule="evenodd"/>
<path d="M 759 582 L 758 583 L 758 633 L 767 633 L 767 617 L 768 616 L 778 616 L 783 622 L 783 623 L 785 625 L 785 626 L 787 628 L 787 629 L 790 633 L 800 633 L 799 630 L 793 623 L 793 622 L 791 620 L 791 619 L 788 615 L 790 613 L 793 612 L 797 608 L 797 607 L 799 604 L 799 593 L 798 592 L 797 589 L 791 584 L 790 584 L 789 583 L 786 583 L 785 582 Z" fill="white" fill-rule="evenodd"/>
<path d="M 767 591 L 768 590 L 780 590 L 781 591 L 785 591 L 786 592 L 787 592 L 789 594 L 789 595 L 790 596 L 790 602 L 785 607 L 768 607 L 767 606 Z" fill="white" fill-rule="evenodd"/>
<path d="M 692 582 L 691 583 L 691 633 L 729 633 L 729 626 L 728 625 L 701 625 L 700 624 L 700 613 L 701 612 L 725 612 L 725 604 L 724 603 L 714 603 L 713 604 L 711 604 L 710 603 L 702 603 L 701 604 L 700 603 L 700 591 L 701 590 L 729 590 L 729 583 L 728 582 Z" fill="white" fill-rule="evenodd"/>
<path d="M 617 582 L 616 583 L 616 590 L 617 591 L 617 603 L 616 604 L 616 609 L 617 610 L 617 625 L 616 626 L 616 632 L 617 633 L 625 633 L 625 599 L 626 598 L 631 605 L 636 610 L 638 614 L 648 626 L 651 631 L 653 633 L 661 633 L 661 583 L 660 582 L 652 582 L 652 615 L 651 616 L 641 604 L 635 595 L 631 591 L 625 582 Z" fill="white" fill-rule="evenodd"/>
<path d="M 550 582 L 550 633 L 587 633 L 587 625 L 560 625 L 559 624 L 559 613 L 560 612 L 583 612 L 584 611 L 584 604 L 583 603 L 569 603 L 568 604 L 566 604 L 565 603 L 563 603 L 562 604 L 561 603 L 560 604 L 559 603 L 559 591 L 560 590 L 575 590 L 576 591 L 578 590 L 587 590 L 587 582 Z" fill="white" fill-rule="evenodd"/>
<path d="M 268 521 L 268 522 L 269 522 Z" fill="white" fill-rule="evenodd"/>
<path d="M 258 505 L 257 506 L 258 507 Z" fill="white" fill-rule="evenodd"/>
<path d="M 250 496 L 251 496 L 252 495 L 250 495 Z" fill="white" fill-rule="evenodd"/>
<path d="M 245 484 L 244 483 L 244 484 L 243 485 L 245 485 Z" fill="white" fill-rule="evenodd"/>
<path d="M 231 461 L 229 463 L 231 463 Z" fill="white" fill-rule="evenodd"/>
<path d="M 217 438 L 215 440 L 217 440 Z" fill="white" fill-rule="evenodd"/>
<path d="M 518 359 L 517 360 L 518 361 Z" fill="white" fill-rule="evenodd"/>
<path d="M 825 342 L 824 343 L 824 514 L 826 515 L 827 514 L 872 514 L 872 342 Z" fill="white" fill-rule="evenodd"/>
<path d="M 1464 340 L 1447 339 L 1427 346 L 1420 351 L 1409 364 L 1406 362 L 1409 365 L 1404 373 L 1402 363 L 1402 342 L 1358 343 L 1358 514 L 1402 514 L 1403 432 L 1407 416 L 1416 400 L 1428 389 L 1447 382 L 1464 383 Z" fill="white" fill-rule="evenodd"/>
<path d="M 1402 373 L 1403 372 L 1404 373 L 1403 374 Z" fill="white" fill-rule="evenodd"/>
<path d="M 1540 340 L 1527 344 L 1509 354 L 1486 380 L 1479 395 L 1474 418 L 1474 439 L 1478 459 L 1485 475 L 1495 489 L 1508 501 L 1523 510 L 1552 518 L 1574 518 L 1594 514 L 1616 503 L 1632 487 L 1608 464 L 1592 477 L 1571 484 L 1549 482 L 1540 478 L 1528 468 L 1521 456 L 1518 444 L 1640 443 L 1641 414 L 1638 399 L 1624 369 L 1602 349 L 1574 339 Z" fill="white" fill-rule="evenodd"/>
<path d="M 1518 411 L 1519 410 L 1519 407 L 1520 406 L 1520 404 L 1521 403 L 1521 401 L 1522 400 L 1522 398 L 1524 394 L 1527 391 L 1529 387 L 1537 380 L 1538 380 L 1540 378 L 1544 376 L 1546 376 L 1550 374 L 1568 374 L 1569 375 L 1571 375 L 1572 376 L 1574 376 L 1578 378 L 1580 380 L 1581 380 L 1589 388 L 1589 389 L 1591 391 L 1594 397 L 1594 399 L 1596 402 L 1596 406 L 1597 407 L 1597 412 L 1596 413 L 1595 412 L 1594 413 L 1591 413 L 1597 413 L 1598 414 L 1597 415 L 1519 415 L 1518 414 Z" fill="white" fill-rule="evenodd"/>
<path d="M 1217 341 L 1195 350 L 1182 359 L 1170 371 L 1162 382 L 1152 405 L 1149 425 L 1150 443 L 1155 461 L 1162 475 L 1173 489 L 1172 490 L 1189 503 L 1204 511 L 1224 517 L 1253 518 L 1271 514 L 1288 507 L 1304 496 L 1313 487 L 1324 471 L 1331 454 L 1334 440 L 1334 417 L 1328 394 L 1316 373 L 1297 355 L 1281 346 L 1267 341 L 1246 338 Z" fill="white" fill-rule="evenodd"/>
<path d="M 1172 490 L 1173 489 L 1174 490 L 1173 491 Z" fill="white" fill-rule="evenodd"/>
<path d="M 1236 377 L 1248 377 L 1249 378 L 1257 379 L 1264 382 L 1270 386 L 1283 400 L 1288 410 L 1289 416 L 1290 417 L 1290 423 L 1291 424 L 1291 435 L 1290 436 L 1289 445 L 1286 451 L 1286 453 L 1281 461 L 1268 473 L 1258 478 L 1255 478 L 1250 480 L 1234 480 L 1221 476 L 1213 471 L 1203 461 L 1199 455 L 1193 437 L 1193 421 L 1194 420 L 1194 416 L 1195 415 L 1196 409 L 1201 399 L 1211 388 L 1218 383 L 1227 379 L 1235 378 Z" fill="white" fill-rule="evenodd"/>
<path d="M 621 352 L 593 340 L 559 339 L 537 347 L 516 367 L 515 342 L 467 343 L 467 566 L 469 568 L 515 567 L 516 490 L 520 494 L 518 497 L 520 495 L 545 513 L 566 518 L 583 518 L 615 508 L 628 499 L 642 484 L 651 468 L 657 449 L 658 412 L 654 396 L 645 377 L 635 364 Z" fill="white" fill-rule="evenodd"/>
<path d="M 560 377 L 573 378 L 579 380 L 587 384 L 595 390 L 604 401 L 610 416 L 610 421 L 611 422 L 611 433 L 610 434 L 609 443 L 607 449 L 601 459 L 588 471 L 580 475 L 574 476 L 573 477 L 569 477 L 568 478 L 552 477 L 541 473 L 531 466 L 522 455 L 516 442 L 516 438 L 515 437 L 515 420 L 516 419 L 516 414 L 519 408 L 519 406 L 523 399 L 532 389 L 540 383 L 549 379 L 559 378 Z" fill="white" fill-rule="evenodd"/>
<path d="M 705 292 L 705 341 L 680 342 L 680 380 L 705 381 L 705 478 L 708 490 L 718 505 L 728 512 L 739 516 L 761 518 L 787 513 L 795 508 L 795 474 L 768 478 L 759 474 L 754 465 L 754 381 L 797 380 L 797 342 L 754 341 L 754 292 Z" fill="white" fill-rule="evenodd"/>
<path d="M 1023 275 L 1002 279 L 959 299 L 941 318 L 928 337 L 916 366 L 913 411 L 929 461 L 953 489 L 1000 513 L 1050 518 L 1076 513 L 1104 501 L 1124 488 L 1133 476 L 1103 447 L 1077 467 L 1054 475 L 1024 475 L 998 465 L 977 446 L 964 420 L 961 394 L 966 368 L 980 344 L 1010 322 L 1033 317 L 1057 319 L 1083 330 L 1102 345 L 1132 312 L 1113 296 L 1090 284 L 1061 276 Z" fill="white" fill-rule="evenodd"/>
<path d="M 1112 456 L 1113 455 L 1114 456 L 1113 457 Z" fill="white" fill-rule="evenodd"/>
<path d="M 1111 455 L 1112 454 L 1113 455 L 1112 456 Z" fill="white" fill-rule="evenodd"/>
<path d="M 1110 454 L 1111 453 L 1112 454 L 1111 455 Z" fill="white" fill-rule="evenodd"/>
<path d="M 984 340 L 985 339 L 986 340 L 985 341 Z" fill="white" fill-rule="evenodd"/>
<path d="M 1109 338 L 1110 337 L 1111 338 L 1110 339 Z" fill="white" fill-rule="evenodd"/>
<path d="M 824 273 L 824 313 L 825 314 L 872 314 L 872 273 Z" fill="white" fill-rule="evenodd"/>
<path d="M 287 242 L 234 254 L 184 289 L 155 336 L 146 399 L 156 441 L 177 477 L 206 504 L 267 528 L 231 469 L 282 468 L 254 436 L 221 435 L 220 451 L 200 405 L 217 431 L 251 432 L 247 419 L 261 433 L 296 435 L 291 424 L 323 437 L 264 437 L 291 470 L 329 465 L 312 443 L 331 463 L 357 465 L 339 475 L 297 475 L 308 502 L 294 477 L 249 479 L 264 517 L 277 529 L 322 525 L 322 512 L 335 522 L 367 508 L 346 476 L 375 503 L 399 485 L 376 464 L 354 463 L 399 459 L 381 462 L 401 481 L 416 465 L 345 429 L 282 414 L 286 423 L 242 406 L 240 415 L 232 405 L 198 400 L 199 364 L 217 328 L 273 294 L 312 294 L 343 306 L 372 333 L 387 367 L 388 401 L 375 437 L 418 459 L 434 425 L 439 378 L 421 317 L 387 276 L 341 250 Z" fill="white" fill-rule="evenodd"/>
<path d="M 318 515 L 319 514 L 320 515 L 320 516 L 319 517 L 318 516 Z" fill="white" fill-rule="evenodd"/>
<path d="M 309 501 L 310 502 L 312 500 L 316 504 L 316 505 L 320 509 L 320 510 L 322 512 L 320 514 L 319 514 L 318 515 L 315 512 L 315 511 L 316 510 L 317 511 L 318 510 L 316 510 L 315 511 L 311 507 L 311 506 L 312 505 L 313 506 L 314 505 L 312 505 L 311 506 L 308 503 L 308 502 Z" fill="white" fill-rule="evenodd"/>
<path d="M 307 496 L 308 495 L 309 496 L 308 497 Z" fill="white" fill-rule="evenodd"/>
<path d="M 304 492 L 305 491 L 306 492 L 305 493 Z" fill="white" fill-rule="evenodd"/>
<path d="M 342 478 L 343 477 L 344 478 L 343 479 Z" fill="white" fill-rule="evenodd"/>
<path d="M 339 475 L 340 474 L 342 474 L 343 473 L 346 476 L 345 477 L 343 477 L 342 478 Z" fill="white" fill-rule="evenodd"/>
<path d="M 341 473 L 342 472 L 343 473 L 342 474 Z" fill="white" fill-rule="evenodd"/>
<path d="M 328 460 L 329 459 L 330 460 L 329 461 Z" fill="white" fill-rule="evenodd"/>
<path d="M 327 459 L 328 458 L 329 459 L 328 460 Z" fill="white" fill-rule="evenodd"/>
<path d="M 326 458 L 327 457 L 328 458 L 327 459 Z" fill="white" fill-rule="evenodd"/>
<path d="M 325 457 L 326 456 L 327 457 L 326 458 Z" fill="white" fill-rule="evenodd"/>
<path d="M 324 456 L 325 455 L 326 456 L 325 457 Z" fill="white" fill-rule="evenodd"/>
<path d="M 276 456 L 277 455 L 278 456 L 277 457 Z" fill="white" fill-rule="evenodd"/>
<path d="M 323 455 L 324 454 L 325 455 L 324 456 Z" fill="white" fill-rule="evenodd"/>
<path d="M 275 455 L 276 454 L 277 455 L 276 456 Z" fill="white" fill-rule="evenodd"/>
<path d="M 364 454 L 365 453 L 366 453 L 369 456 L 368 457 L 367 457 Z" fill="white" fill-rule="evenodd"/>
<path d="M 274 454 L 275 453 L 276 454 L 275 455 Z" fill="white" fill-rule="evenodd"/>
<path d="M 361 452 L 362 451 L 363 451 L 365 453 L 364 454 L 363 454 Z" fill="white" fill-rule="evenodd"/>
<path d="M 360 451 L 361 450 L 362 451 L 361 452 Z" fill="white" fill-rule="evenodd"/>
<path d="M 223 451 L 225 451 L 226 450 L 229 453 L 229 454 L 231 456 L 231 457 L 232 458 L 232 459 L 234 461 L 234 462 L 235 463 L 235 464 L 236 465 L 236 466 L 235 467 L 233 467 L 231 469 L 229 467 L 229 466 L 227 464 L 227 463 L 226 462 L 226 461 L 224 459 L 224 458 L 225 457 L 226 458 L 227 457 L 227 455 L 224 458 L 223 457 L 223 456 L 221 454 L 221 453 Z" fill="white" fill-rule="evenodd"/>
<path d="M 220 451 L 221 450 L 222 451 L 222 452 L 221 453 L 220 452 Z" fill="white" fill-rule="evenodd"/>
<path d="M 358 450 L 359 449 L 360 449 L 361 450 L 360 451 L 359 451 Z" fill="white" fill-rule="evenodd"/>
<path d="M 357 449 L 358 448 L 359 449 L 358 450 Z" fill="white" fill-rule="evenodd"/>
<path d="M 356 448 L 357 447 L 358 448 L 357 449 Z" fill="white" fill-rule="evenodd"/>
<path d="M 354 447 L 355 446 L 356 446 L 357 447 L 356 448 L 355 448 Z" fill="white" fill-rule="evenodd"/>
<path d="M 353 446 L 354 445 L 355 446 L 354 447 Z" fill="white" fill-rule="evenodd"/>
<path d="M 217 446 L 218 445 L 219 446 L 219 447 L 218 448 L 217 447 Z" fill="white" fill-rule="evenodd"/>
<path d="M 309 444 L 310 443 L 311 444 L 310 445 Z" fill="white" fill-rule="evenodd"/>
<path d="M 310 443 L 311 442 L 312 443 L 311 444 Z" fill="white" fill-rule="evenodd"/>
<path d="M 308 443 L 309 442 L 310 443 L 309 444 Z" fill="white" fill-rule="evenodd"/>
<path d="M 365 442 L 366 441 L 372 441 L 373 442 L 372 443 L 366 443 Z" fill="white" fill-rule="evenodd"/>
<path d="M 362 442 L 363 441 L 364 441 L 365 442 L 364 443 L 363 443 Z" fill="white" fill-rule="evenodd"/>
<path d="M 309 442 L 310 441 L 311 442 L 310 443 Z" fill="white" fill-rule="evenodd"/>
<path d="M 307 442 L 308 441 L 309 442 L 308 443 Z" fill="white" fill-rule="evenodd"/>
<path d="M 308 441 L 309 440 L 310 441 L 309 442 Z" fill="white" fill-rule="evenodd"/>
<path d="M 323 439 L 324 438 L 334 438 L 335 439 L 334 440 L 324 440 Z" fill="white" fill-rule="evenodd"/>
<path d="M 336 440 L 337 439 L 340 439 L 340 438 L 338 436 L 339 435 L 340 435 L 342 437 L 343 437 L 345 439 L 346 439 L 347 440 L 356 440 L 357 441 L 356 442 L 352 442 L 352 443 L 354 445 L 353 446 L 352 446 L 350 444 L 349 444 L 347 442 L 346 442 L 345 441 L 337 441 Z" fill="white" fill-rule="evenodd"/>
<path d="M 337 435 L 338 434 L 339 435 L 338 436 Z" fill="white" fill-rule="evenodd"/>
<path d="M 335 434 L 336 433 L 337 433 L 338 434 L 337 435 L 336 435 Z" fill="white" fill-rule="evenodd"/>
<path d="M 334 433 L 335 432 L 336 433 L 335 434 Z" fill="white" fill-rule="evenodd"/>
<path d="M 332 432 L 333 431 L 334 431 L 335 432 L 334 433 L 333 433 Z" fill="white" fill-rule="evenodd"/>
<path d="M 331 431 L 332 430 L 333 431 L 332 432 Z" fill="white" fill-rule="evenodd"/>
<path d="M 329 430 L 330 429 L 331 429 L 332 430 L 331 431 L 330 431 Z" fill="white" fill-rule="evenodd"/>
<path d="M 328 429 L 329 428 L 330 429 L 328 430 Z" fill="white" fill-rule="evenodd"/>
<path d="M 326 428 L 327 427 L 328 428 L 327 429 Z" fill="white" fill-rule="evenodd"/>
<path d="M 325 427 L 326 426 L 327 427 L 326 428 Z" fill="white" fill-rule="evenodd"/>
<path d="M 288 424 L 289 423 L 290 424 L 289 425 Z" fill="white" fill-rule="evenodd"/>
<path d="M 287 423 L 288 422 L 289 423 L 288 424 Z" fill="white" fill-rule="evenodd"/>
<path d="M 244 420 L 245 419 L 246 420 L 245 421 Z" fill="white" fill-rule="evenodd"/>
<path d="M 245 419 L 246 418 L 247 419 L 246 420 Z" fill="white" fill-rule="evenodd"/>
<path d="M 243 419 L 244 418 L 245 419 L 244 420 Z" fill="white" fill-rule="evenodd"/>
<path d="M 243 414 L 246 417 L 246 418 L 245 419 L 244 418 L 243 418 L 241 416 Z" fill="white" fill-rule="evenodd"/>
<path d="M 240 415 L 241 414 L 242 415 L 241 416 Z" fill="white" fill-rule="evenodd"/>
<path d="M 241 414 L 242 413 L 243 414 L 242 415 Z" fill="white" fill-rule="evenodd"/>
<path d="M 198 404 L 199 403 L 200 404 L 200 405 L 199 406 L 198 405 Z" fill="white" fill-rule="evenodd"/>
<path d="M 221 324 L 222 323 L 223 324 L 222 325 Z" fill="white" fill-rule="evenodd"/>
</svg>
